<mxfile host="www.draw.io" modified="2020-01-20T04:37:29.128Z" agent="Mozilla/5.0 (Windows NT 10.0; Win64; x64) AppleWebKit/537.36 (KHTML, like Gecko) Chrome/79.0.3945.117 Safari/537.36" etag="Gkb769qiu1QKlnL8RVjY" version="12.5.5" type="github">
  <diagram id="teIsq7KTB3O1CH4o7PR5" name="Page-1">
    <mxGraphModel dx="1422" dy="745" grid="1" gridSize="10" guides="1" tooltips="1" connect="1" arrows="1" fold="1" page="1" pageScale="1" pageWidth="1169" pageHeight="827" math="0" shadow="0">
      <root>
        <mxCell id="0"/>
        <mxCell id="1" parent="0"/>
        <mxCell id="TdllQlUeXszhdlZdWgxR-1" value="Block Cipher" style="text;html=1;align=center;verticalAlign=middle;resizable=0;points=[];autosize=1;fontSize=30;fontStyle=1" parent="1" vertex="1">
          <mxGeometry x="460" y="30" width="200" height="40" as="geometry"/>
        </mxCell>
        <mxCell id="TdllQlUeXszhdlZdWgxR-3" value="" style="rounded=0;whiteSpace=wrap;html=1;fontSize=30;fillColor=#d5e8d4;strokeColor=#82b366;" parent="1" vertex="1">
          <mxGeometry x="280" y="140" width="120" height="60" as="geometry"/>
        </mxCell>
        <mxCell id="TdllQlUeXszhdlZdWgxR-4" value="" style="rounded=0;whiteSpace=wrap;html=1;fontSize=30;fillColor=#d5e8d4;strokeColor=#82b366;" parent="1" vertex="1">
          <mxGeometry x="400" y="140" width="120" height="60" as="geometry"/>
        </mxCell>
        <mxCell id="TdllQlUeXszhdlZdWgxR-5" value="" style="rounded=0;whiteSpace=wrap;html=1;fontSize=30;fillColor=#d5e8d4;strokeColor=#82b366;" parent="1" vertex="1">
          <mxGeometry x="520" y="140" width="120" height="60" as="geometry"/>
        </mxCell>
        <mxCell id="TdllQlUeXszhdlZdWgxR-6" value="" style="rounded=0;whiteSpace=wrap;html=1;fontSize=30;fillColor=#d5e8d4;strokeColor=#82b366;" parent="1" vertex="1">
          <mxGeometry x="640" y="140" width="120" height="60" as="geometry"/>
        </mxCell>
        <mxCell id="TdllQlUeXszhdlZdWgxR-8" value="" style="rounded=0;whiteSpace=wrap;html=1;fontSize=30;fillColor=#d5e8d4;strokeColor=#82b366;" parent="1" vertex="1">
          <mxGeometry x="760" y="140" width="80" height="60" as="geometry"/>
        </mxCell>
        <mxCell id="TdllQlUeXszhdlZdWgxR-9" value="&lt;font style=&quot;font-size: 18px&quot;&gt;Plaintext&lt;/font&gt;" style="text;html=1;align=center;verticalAlign=middle;resizable=0;points=[];autosize=1;fontSize=30;" parent="1" vertex="1">
          <mxGeometry x="130" y="120" width="80" height="50" as="geometry"/>
        </mxCell>
        <mxCell id="TdllQlUeXszhdlZdWgxR-10" value="" style="endArrow=none;html=1;fontSize=30;" parent="1" edge="1">
          <mxGeometry width="50" height="50" relative="1" as="geometry">
            <mxPoint x="130" y="160" as="sourcePoint"/>
            <mxPoint x="210" y="160" as="targetPoint"/>
          </mxGeometry>
        </mxCell>
        <mxCell id="TdllQlUeXszhdlZdWgxR-11" value="" style="endArrow=classic;html=1;fontSize=30;entryX=0;entryY=0.5;entryDx=0;entryDy=0;" parent="1" edge="1">
          <mxGeometry width="50" height="50" relative="1" as="geometry">
            <mxPoint x="210" y="160" as="sourcePoint"/>
            <mxPoint x="280" y="170" as="targetPoint"/>
          </mxGeometry>
        </mxCell>
        <mxCell id="TdllQlUeXszhdlZdWgxR-13" value="&lt;font style=&quot;font-size: 18px&quot;&gt;Block cipher: each message is divided into a segment of blocks&lt;/font&gt;" style="text;html=1;align=center;verticalAlign=middle;resizable=0;points=[];autosize=1;fontSize=30;" parent="1" vertex="1">
          <mxGeometry x="300" y="101" width="520" height="50" as="geometry"/>
        </mxCell>
        <mxCell id="TdllQlUeXszhdlZdWgxR-15" value="1" style="rounded=0;whiteSpace=wrap;html=1;fontSize=30;fillColor=#d5e8d4;strokeColor=#82b366;" parent="1" vertex="1">
          <mxGeometry x="200" y="240" width="120" height="60" as="geometry"/>
        </mxCell>
        <mxCell id="TdllQlUeXszhdlZdWgxR-16" value="2" style="rounded=0;whiteSpace=wrap;html=1;fontSize=30;fillColor=#d5e8d4;strokeColor=#82b366;" parent="1" vertex="1">
          <mxGeometry x="360" y="240" width="120" height="60" as="geometry"/>
        </mxCell>
        <mxCell id="TdllQlUeXszhdlZdWgxR-17" value="3" style="rounded=0;whiteSpace=wrap;html=1;fontSize=30;fillColor=#d5e8d4;strokeColor=#82b366;" parent="1" vertex="1">
          <mxGeometry x="520" y="240" width="120" height="60" as="geometry"/>
        </mxCell>
        <mxCell id="TdllQlUeXszhdlZdWgxR-18" value="4" style="rounded=0;whiteSpace=wrap;html=1;fontSize=30;fillColor=#d5e8d4;strokeColor=#82b366;" parent="1" vertex="1">
          <mxGeometry x="680" y="240" width="120" height="60" as="geometry"/>
        </mxCell>
        <mxCell id="TdllQlUeXszhdlZdWgxR-20" value="5" style="rounded=0;whiteSpace=wrap;html=1;fontSize=30;fillColor=#d5e8d4;strokeColor=#82b366;" parent="1" vertex="1">
          <mxGeometry x="840" y="240" width="80" height="60" as="geometry"/>
        </mxCell>
        <mxCell id="TdllQlUeXszhdlZdWgxR-26" value="" style="endArrow=none;html=1;fontSize=30;" parent="1" edge="1">
          <mxGeometry width="50" height="50" relative="1" as="geometry">
            <mxPoint x="10" y="400" as="sourcePoint"/>
            <mxPoint x="10" y="400" as="targetPoint"/>
          </mxGeometry>
        </mxCell>
        <mxCell id="TdllQlUeXszhdlZdWgxR-30" value="Blocks of plaintext" style="whiteSpace=wrap;html=1;shape=partialRectangle;top=0;left=0;bottom=1;right=0;points=[[0,1],[1,1]];strokeColor=#000000;fillColor=none;align=center;verticalAlign=bottom;routingCenterY=0.5;snapToPoint=1;container=1;recursiveResize=0;autosize=1;treeFolding=1;treeMoving=1;fontSize=18;" parent="1" vertex="1">
          <mxGeometry y="200" width="180" height="30" as="geometry"/>
        </mxCell>
        <mxCell id="TdllQlUeXszhdlZdWgxR-31" value="" style="edgeStyle=entityRelationEdgeStyle;startArrow=none;endArrow=none;segment=10;curved=1;fontSize=18;entryX=1;entryY=1;entryDx=0;entryDy=0;" parent="1" source="TdllQlUeXszhdlZdWgxR-15" target="TdllQlUeXszhdlZdWgxR-30" edge="1">
          <mxGeometry relative="1" as="geometry">
            <mxPoint x="61" y="301.98" as="sourcePoint"/>
          </mxGeometry>
        </mxCell>
        <mxCell id="TdllQlUeXszhdlZdWgxR-33" value="100" style="rounded=0;whiteSpace=wrap;html=1;fontSize=18;fillColor=#f5f5f5;strokeColor=#666666;fontColor=#333333;" parent="1" vertex="1">
          <mxGeometry x="920" y="240" width="40" height="60" as="geometry"/>
        </mxCell>
        <mxCell id="lpGSSCiZ2T_nPzG1h67O-2" value="" style="endArrow=classic;html=1;exitX=0.5;exitY=1;exitDx=0;exitDy=0;entryX=0.5;entryY=0;entryDx=0;entryDy=0;" edge="1" parent="1" source="TdllQlUeXszhdlZdWgxR-3" target="TdllQlUeXszhdlZdWgxR-15">
          <mxGeometry width="50" height="50" relative="1" as="geometry">
            <mxPoint x="10" y="470" as="sourcePoint"/>
            <mxPoint x="60" y="420" as="targetPoint"/>
          </mxGeometry>
        </mxCell>
        <mxCell id="lpGSSCiZ2T_nPzG1h67O-3" value="" style="endArrow=classic;html=1;exitX=0.5;exitY=1;exitDx=0;exitDy=0;entryX=0.5;entryY=0;entryDx=0;entryDy=0;" edge="1" parent="1" source="TdllQlUeXszhdlZdWgxR-4" target="TdllQlUeXszhdlZdWgxR-16">
          <mxGeometry width="50" height="50" relative="1" as="geometry">
            <mxPoint x="10" y="470" as="sourcePoint"/>
            <mxPoint x="60" y="420" as="targetPoint"/>
          </mxGeometry>
        </mxCell>
        <mxCell id="lpGSSCiZ2T_nPzG1h67O-4" value="" style="endArrow=classic;html=1;exitX=0.5;exitY=1;exitDx=0;exitDy=0;entryX=0.5;entryY=0;entryDx=0;entryDy=0;" edge="1" parent="1" source="TdllQlUeXszhdlZdWgxR-5" target="TdllQlUeXszhdlZdWgxR-17">
          <mxGeometry width="50" height="50" relative="1" as="geometry">
            <mxPoint x="10" y="470" as="sourcePoint"/>
            <mxPoint x="60" y="420" as="targetPoint"/>
          </mxGeometry>
        </mxCell>
        <mxCell id="lpGSSCiZ2T_nPzG1h67O-5" value="" style="endArrow=classic;html=1;exitX=0.5;exitY=1;exitDx=0;exitDy=0;entryX=0.5;entryY=0;entryDx=0;entryDy=0;" edge="1" parent="1" source="TdllQlUeXszhdlZdWgxR-6" target="TdllQlUeXszhdlZdWgxR-18">
          <mxGeometry width="50" height="50" relative="1" as="geometry">
            <mxPoint x="10" y="470" as="sourcePoint"/>
            <mxPoint x="60" y="420" as="targetPoint"/>
          </mxGeometry>
        </mxCell>
        <mxCell id="lpGSSCiZ2T_nPzG1h67O-7" value="" style="endArrow=classic;html=1;exitX=0.5;exitY=1;exitDx=0;exitDy=0;entryX=0.5;entryY=0;entryDx=0;entryDy=0;" edge="1" parent="1" source="TdllQlUeXszhdlZdWgxR-8" target="TdllQlUeXszhdlZdWgxR-20">
          <mxGeometry width="50" height="50" relative="1" as="geometry">
            <mxPoint x="-110" y="470" as="sourcePoint"/>
            <mxPoint x="-60" y="420" as="targetPoint"/>
          </mxGeometry>
        </mxCell>
        <mxCell id="lpGSSCiZ2T_nPzG1h67O-8" value="&lt;font style=&quot;font-size: 16px&quot;&gt;Short blocks require padding with extra bits&lt;/font&gt;" style="whiteSpace=wrap;html=1;shape=partialRectangle;top=0;left=0;bottom=1;right=0;points=[[0,1],[1,1]];strokeColor=#000000;fillColor=none;align=center;verticalAlign=bottom;routingCenterY=0.5;snapToPoint=1;container=1;recursiveResize=0;autosize=1;treeFolding=1;treeMoving=1;" vertex="1" parent="1">
          <mxGeometry x="980" y="220" width="185" height="20" as="geometry"/>
        </mxCell>
        <mxCell id="lpGSSCiZ2T_nPzG1h67O-9" value="" style="edgeStyle=entityRelationEdgeStyle;startArrow=none;endArrow=none;segment=10;curved=1;" edge="1" target="lpGSSCiZ2T_nPzG1h67O-8" parent="1">
          <mxGeometry relative="1" as="geometry">
            <mxPoint x="960" y="270" as="sourcePoint"/>
          </mxGeometry>
        </mxCell>
        <mxCell id="lpGSSCiZ2T_nPzG1h67O-10" value="" style="shape=curlyBracket;whiteSpace=wrap;html=1;rounded=1;rotation=-90;" vertex="1" parent="1">
          <mxGeometry x="250" y="260" width="20" height="120" as="geometry"/>
        </mxCell>
        <mxCell id="lpGSSCiZ2T_nPzG1h67O-13" value="" style="shape=curlyBracket;whiteSpace=wrap;html=1;rounded=1;rotation=-90;" vertex="1" parent="1">
          <mxGeometry x="890" y="260" width="20" height="120" as="geometry"/>
        </mxCell>
        <mxCell id="lpGSSCiZ2T_nPzG1h67O-14" value="" style="shape=curlyBracket;whiteSpace=wrap;html=1;rounded=1;rotation=-90;" vertex="1" parent="1">
          <mxGeometry x="730" y="260" width="20" height="120" as="geometry"/>
        </mxCell>
        <mxCell id="lpGSSCiZ2T_nPzG1h67O-15" value="" style="shape=curlyBracket;whiteSpace=wrap;html=1;rounded=1;rotation=-90;" vertex="1" parent="1">
          <mxGeometry x="570" y="260" width="20" height="120" as="geometry"/>
        </mxCell>
        <mxCell id="lpGSSCiZ2T_nPzG1h67O-16" value="" style="shape=curlyBracket;whiteSpace=wrap;html=1;rounded=1;rotation=-90;" vertex="1" parent="1">
          <mxGeometry x="410" y="260" width="20" height="120" as="geometry"/>
        </mxCell>
        <mxCell id="lpGSSCiZ2T_nPzG1h67O-17" value="Equal Bits" style="text;html=1;align=center;verticalAlign=middle;resizable=0;points=[];autosize=1;" vertex="1" parent="1">
          <mxGeometry x="225" y="330" width="70" height="20" as="geometry"/>
        </mxCell>
        <mxCell id="lpGSSCiZ2T_nPzG1h67O-18" value="Equal Bits" style="text;html=1;align=center;verticalAlign=middle;resizable=0;points=[];autosize=1;" vertex="1" parent="1">
          <mxGeometry x="865" y="330" width="70" height="20" as="geometry"/>
        </mxCell>
        <mxCell id="lpGSSCiZ2T_nPzG1h67O-19" value="Equal Bits" style="text;html=1;align=center;verticalAlign=middle;resizable=0;points=[];autosize=1;" vertex="1" parent="1">
          <mxGeometry x="705" y="330" width="70" height="20" as="geometry"/>
        </mxCell>
        <mxCell id="lpGSSCiZ2T_nPzG1h67O-20" value="Equal Bits" style="text;html=1;align=center;verticalAlign=middle;resizable=0;points=[];autosize=1;" vertex="1" parent="1">
          <mxGeometry x="545" y="330" width="70" height="20" as="geometry"/>
        </mxCell>
        <mxCell id="lpGSSCiZ2T_nPzG1h67O-21" value="Equal Bits" style="text;html=1;align=center;verticalAlign=middle;resizable=0;points=[];autosize=1;" vertex="1" parent="1">
          <mxGeometry x="385" y="330" width="70" height="20" as="geometry"/>
        </mxCell>
        <mxCell id="lpGSSCiZ2T_nPzG1h67O-22" value="&lt;font style=&quot;font-size: 36px&quot;&gt;Key / Encryption&lt;/font&gt;" style="rounded=1;whiteSpace=wrap;html=1;fillColor=#fff2cc;strokeColor=#d6b656;" vertex="1" parent="1">
          <mxGeometry x="200" y="400" width="760" height="60" as="geometry"/>
        </mxCell>
        <mxCell id="lpGSSCiZ2T_nPzG1h67O-24" value="" style="endArrow=classic;html=1;exitX=0.5;exitY=1.15;exitDx=0;exitDy=0;exitPerimeter=0;" edge="1" parent="1" source="lpGSSCiZ2T_nPzG1h67O-17">
          <mxGeometry width="50" height="50" relative="1" as="geometry">
            <mxPoint x="259.5" y="360" as="sourcePoint"/>
            <mxPoint x="259.5" y="400" as="targetPoint"/>
          </mxGeometry>
        </mxCell>
        <mxCell id="lpGSSCiZ2T_nPzG1h67O-26" value="" style="endArrow=classic;html=1;exitX=0.5;exitY=1.15;exitDx=0;exitDy=0;exitPerimeter=0;" edge="1" parent="1">
          <mxGeometry width="50" height="50" relative="1" as="geometry">
            <mxPoint x="900" y="353" as="sourcePoint"/>
            <mxPoint x="899.5" y="400" as="targetPoint"/>
          </mxGeometry>
        </mxCell>
        <mxCell id="lpGSSCiZ2T_nPzG1h67O-27" value="" style="endArrow=classic;html=1;exitX=0.5;exitY=1.15;exitDx=0;exitDy=0;exitPerimeter=0;" edge="1" parent="1">
          <mxGeometry width="50" height="50" relative="1" as="geometry">
            <mxPoint x="740" y="353" as="sourcePoint"/>
            <mxPoint x="739.5" y="400" as="targetPoint"/>
          </mxGeometry>
        </mxCell>
        <mxCell id="lpGSSCiZ2T_nPzG1h67O-28" value="" style="endArrow=classic;html=1;exitX=0.5;exitY=1.15;exitDx=0;exitDy=0;exitPerimeter=0;" edge="1" parent="1">
          <mxGeometry width="50" height="50" relative="1" as="geometry">
            <mxPoint x="580" y="353" as="sourcePoint"/>
            <mxPoint x="579.5" y="400" as="targetPoint"/>
          </mxGeometry>
        </mxCell>
        <mxCell id="lpGSSCiZ2T_nPzG1h67O-29" value="" style="endArrow=classic;html=1;exitX=0.5;exitY=1.15;exitDx=0;exitDy=0;exitPerimeter=0;" edge="1" parent="1">
          <mxGeometry width="50" height="50" relative="1" as="geometry">
            <mxPoint x="420" y="353" as="sourcePoint"/>
            <mxPoint x="419.5" y="400" as="targetPoint"/>
          </mxGeometry>
        </mxCell>
        <mxCell id="lpGSSCiZ2T_nPzG1h67O-30" value="" style="endArrow=classic;html=1;exitX=0.5;exitY=1.15;exitDx=0;exitDy=0;exitPerimeter=0;" edge="1" parent="1">
          <mxGeometry width="50" height="50" relative="1" as="geometry">
            <mxPoint x="260" y="460" as="sourcePoint"/>
            <mxPoint x="259.5" y="507" as="targetPoint"/>
          </mxGeometry>
        </mxCell>
        <mxCell id="lpGSSCiZ2T_nPzG1h67O-31" value="" style="endArrow=classic;html=1;exitX=0.5;exitY=1.15;exitDx=0;exitDy=0;exitPerimeter=0;" edge="1" parent="1">
          <mxGeometry width="50" height="50" relative="1" as="geometry">
            <mxPoint x="900" y="460" as="sourcePoint"/>
            <mxPoint x="899.5" y="507" as="targetPoint"/>
          </mxGeometry>
        </mxCell>
        <mxCell id="lpGSSCiZ2T_nPzG1h67O-32" value="" style="endArrow=classic;html=1;exitX=0.5;exitY=1.15;exitDx=0;exitDy=0;exitPerimeter=0;" edge="1" parent="1">
          <mxGeometry width="50" height="50" relative="1" as="geometry">
            <mxPoint x="740" y="460" as="sourcePoint"/>
            <mxPoint x="739.5" y="507" as="targetPoint"/>
          </mxGeometry>
        </mxCell>
        <mxCell id="lpGSSCiZ2T_nPzG1h67O-33" value="" style="endArrow=classic;html=1;exitX=0.5;exitY=1.15;exitDx=0;exitDy=0;exitPerimeter=0;" edge="1" parent="1">
          <mxGeometry width="50" height="50" relative="1" as="geometry">
            <mxPoint x="580" y="460" as="sourcePoint"/>
            <mxPoint x="579.5" y="507" as="targetPoint"/>
          </mxGeometry>
        </mxCell>
        <mxCell id="lpGSSCiZ2T_nPzG1h67O-34" value="" style="endArrow=classic;html=1;exitX=0.5;exitY=1.15;exitDx=0;exitDy=0;exitPerimeter=0;" edge="1" parent="1">
          <mxGeometry width="50" height="50" relative="1" as="geometry">
            <mxPoint x="420" y="460" as="sourcePoint"/>
            <mxPoint x="419.5" y="507" as="targetPoint"/>
          </mxGeometry>
        </mxCell>
        <mxCell id="lpGSSCiZ2T_nPzG1h67O-35" value="C&lt;sub&gt;1&lt;/sub&gt;" style="rounded=0;whiteSpace=wrap;html=1;fontSize=30;fillColor=#ffe6cc;strokeColor=#d79b00;" vertex="1" parent="1">
          <mxGeometry x="200" y="510" width="120" height="60" as="geometry"/>
        </mxCell>
        <mxCell id="lpGSSCiZ2T_nPzG1h67O-36" value="C&lt;sub&gt;2&lt;/sub&gt;" style="rounded=0;whiteSpace=wrap;html=1;fontSize=30;fillColor=#ffe6cc;strokeColor=#d79b00;" vertex="1" parent="1">
          <mxGeometry x="360" y="510" width="120" height="60" as="geometry"/>
        </mxCell>
        <mxCell id="lpGSSCiZ2T_nPzG1h67O-37" value="C&lt;sub&gt;3&lt;/sub&gt;" style="rounded=0;whiteSpace=wrap;html=1;fontSize=30;fillColor=#ffe6cc;strokeColor=#d79b00;" vertex="1" parent="1">
          <mxGeometry x="520" y="510" width="120" height="60" as="geometry"/>
        </mxCell>
        <mxCell id="lpGSSCiZ2T_nPzG1h67O-38" value="C&lt;sub&gt;4&lt;/sub&gt;" style="rounded=0;whiteSpace=wrap;html=1;fontSize=30;fillColor=#ffe6cc;strokeColor=#d79b00;" vertex="1" parent="1">
          <mxGeometry x="680" y="510" width="120" height="60" as="geometry"/>
        </mxCell>
        <mxCell id="lpGSSCiZ2T_nPzG1h67O-39" value="C&lt;sub&gt;5&lt;/sub&gt;" style="rounded=0;whiteSpace=wrap;html=1;fontSize=30;fillColor=#ffe6cc;strokeColor=#d79b00;" vertex="1" parent="1">
          <mxGeometry x="840" y="510" width="120" height="60" as="geometry"/>
        </mxCell>
        <mxCell id="lpGSSCiZ2T_nPzG1h67O-40" value="&lt;font style=&quot;font-size: 18px&quot;&gt;Ciphertext&lt;/font&gt;" style="text;html=1;align=center;verticalAlign=middle;resizable=0;points=[];autosize=1;fontSize=30;" vertex="1" parent="1">
          <mxGeometry x="40" y="490" width="100" height="50" as="geometry"/>
        </mxCell>
        <mxCell id="lpGSSCiZ2T_nPzG1h67O-41" value="" style="endArrow=none;html=1;fontSize=30;exitX=0;exitY=0.76;exitDx=0;exitDy=0;exitPerimeter=0;" edge="1" parent="1" source="lpGSSCiZ2T_nPzG1h67O-40">
          <mxGeometry width="50" height="50" relative="1" as="geometry">
            <mxPoint x="50" y="530" as="sourcePoint"/>
            <mxPoint x="130" y="530" as="targetPoint"/>
          </mxGeometry>
        </mxCell>
        <mxCell id="lpGSSCiZ2T_nPzG1h67O-42" value="" style="endArrow=classic;html=1;fontSize=30;entryX=0;entryY=0.5;entryDx=0;entryDy=0;" edge="1" parent="1">
          <mxGeometry width="50" height="50" relative="1" as="geometry">
            <mxPoint x="130" y="530" as="sourcePoint"/>
            <mxPoint x="200" y="540" as="targetPoint"/>
          </mxGeometry>
        </mxCell>
        <mxCell id="lpGSSCiZ2T_nPzG1h67O-43" value="" style="shape=curlyBracket;whiteSpace=wrap;html=1;rounded=1;rotation=-90;" vertex="1" parent="1">
          <mxGeometry x="250" y="530" width="20" height="120" as="geometry"/>
        </mxCell>
        <mxCell id="lpGSSCiZ2T_nPzG1h67O-44" value="" style="shape=curlyBracket;whiteSpace=wrap;html=1;rounded=1;rotation=-90;" vertex="1" parent="1">
          <mxGeometry x="890" y="530" width="20" height="120" as="geometry"/>
        </mxCell>
        <mxCell id="lpGSSCiZ2T_nPzG1h67O-45" value="" style="shape=curlyBracket;whiteSpace=wrap;html=1;rounded=1;rotation=-90;" vertex="1" parent="1">
          <mxGeometry x="730" y="530" width="20" height="120" as="geometry"/>
        </mxCell>
        <mxCell id="lpGSSCiZ2T_nPzG1h67O-46" value="" style="shape=curlyBracket;whiteSpace=wrap;html=1;rounded=1;rotation=-90;" vertex="1" parent="1">
          <mxGeometry x="570" y="530" width="20" height="120" as="geometry"/>
        </mxCell>
        <mxCell id="lpGSSCiZ2T_nPzG1h67O-47" value="" style="shape=curlyBracket;whiteSpace=wrap;html=1;rounded=1;rotation=-90;" vertex="1" parent="1">
          <mxGeometry x="410" y="530" width="20" height="120" as="geometry"/>
        </mxCell>
        <mxCell id="lpGSSCiZ2T_nPzG1h67O-48" value="Equal Bits" style="text;html=1;align=center;verticalAlign=middle;resizable=0;points=[];autosize=1;" vertex="1" parent="1">
          <mxGeometry x="225" y="600" width="70" height="20" as="geometry"/>
        </mxCell>
        <mxCell id="lpGSSCiZ2T_nPzG1h67O-49" value="Equal Bits" style="text;html=1;align=center;verticalAlign=middle;resizable=0;points=[];autosize=1;" vertex="1" parent="1">
          <mxGeometry x="865" y="600" width="70" height="20" as="geometry"/>
        </mxCell>
        <mxCell id="lpGSSCiZ2T_nPzG1h67O-50" value="Equal Bits" style="text;html=1;align=center;verticalAlign=middle;resizable=0;points=[];autosize=1;" vertex="1" parent="1">
          <mxGeometry x="705" y="600" width="70" height="20" as="geometry"/>
        </mxCell>
        <mxCell id="lpGSSCiZ2T_nPzG1h67O-51" value="Equal Bits" style="text;html=1;align=center;verticalAlign=middle;resizable=0;points=[];autosize=1;" vertex="1" parent="1">
          <mxGeometry x="545" y="600" width="70" height="20" as="geometry"/>
        </mxCell>
        <mxCell id="lpGSSCiZ2T_nPzG1h67O-52" value="Equal Bits" style="text;html=1;align=center;verticalAlign=middle;resizable=0;points=[];autosize=1;" vertex="1" parent="1">
          <mxGeometry x="385" y="600" width="70" height="20" as="geometry"/>
        </mxCell>
      </root>
    </mxGraphModel>
  </diagram>
</mxfile>
